<svg width="41" height="40" viewBox="0 0 41 40" fill="none" xmlns="http://www.w3.org/2000/svg">
<rect x="0.557617" width="40" height="40" rx="20" fill="#F3F3F3"/>
<path d="M28.5576 29V27C28.5576 25.9391 28.1362 24.9217 27.386 24.1716C26.6359 23.4214 25.6185 23 24.5576 23H16.5576C15.4968 23 14.4793 23.4214 13.7292 24.1716C12.979 24.9217 12.5576 25.9391 12.5576 27V29M24.5576 15C24.5576 17.2091 22.7668 19 20.5576 19C18.3485 19 16.5576 17.2091 16.5576 15C16.5576 12.7909 18.3485 11 20.5576 11C22.7668 11 24.5576 12.7909 24.5576 15Z" stroke="#979797" stroke-width="2" stroke-linecap="round" stroke-linejoin="round"/>
</svg>
