<svg width="17" height="17" viewBox="0 0 17 17" fill="none" xmlns="http://www.w3.org/2000/svg">
<path d="M8.26121 13.882H14.2612M2.26123 13.882H3.37759C3.70371 13.882 3.86677 13.882 4.02022 13.8451C4.15627 13.8125 4.28633 13.7586 4.40563 13.6855C4.54018 13.6031 4.65548 13.4877 4.88609 13.2571L13.2612 4.88199C13.8135 4.3297 13.8135 3.43427 13.2612 2.88199C12.709 2.3297 11.8135 2.3297 11.2612 2.88199L2.88607 11.2571C2.65547 11.4877 2.54017 11.6031 2.45771 11.7376C2.38461 11.8569 2.33073 11.987 2.29807 12.123C2.26123 12.2765 2.26123 12.4395 2.26123 12.7656V13.882Z" stroke="#2B5F44" stroke-width="1.5" stroke-linecap="round" stroke-linejoin="round"/>
</svg>
